<svg xmlns="http://www.w3.org/2000/svg" viewBox="0 0 1024 1024">
  <path d="M574.8,198.4c-11.7,0-23.3,0.5-34.8,1.6V59.8L191.8,336.9L540,544.7l0-135.1c11.2-2.3,22.9-3.5,34.8-3.5
	c96.1,0,174.1,77.5,174.1,173.2s-77.9,173.2-174.1,173.2c-62.6,0-117.5-32.9-148.2-82.3c-3-7.7-6.8-15-11.4-21.8
	c-0.6-1.3-1.1-0.8-1.7-2.1l-1-1.6c-19.1-25.2-49.4-41.5-83.5-41.5c-57.7,0-104.4,46.5-104.4,103.9c0,4.5,0.8,13.2,0.8,13.2l1.1,4.3
	C283.8,863,415,960.3,574.8,960.3c211.5,0,382.9-170.6,382.9-381C957.7,369,786.3,198.4,574.8,198.4z"/>
</svg>
